<svg width="24" height="24" viewBox="0 0 24 24" fill="none" xmlns="http://www.w3.org/2000/svg">
<path d="M16.4535 6.06284C15.9987 4.99879 15.3332 4.03784 14.4971 3.2379C13.661 2.43796 12.6716 1.8156 11.5885 1.40833C10.5054 1.00105 9.351 0.817299 8.19496 0.868142C7.03893 0.918985 5.90516 1.20337 4.86199 1.70416C3.81882 2.20495 2.88784 2.91177 2.12518 3.78203C1.36252 4.65228 0.783957 5.66795 0.424371 6.76781C0.0647839 7.86767 -0.0683835 9.02895 0.0328947 10.1817C0.134173 11.3344 0.4678 12.4546 1.01367 13.4749L0.351034 15.7946C0.277505 16.0518 0.274099 16.324 0.341168 16.5829C0.408238 16.8419 0.543342 17.0782 0.73248 17.2674C0.921618 17.4566 1.15791 17.5917 1.41686 17.6588C1.67581 17.726 1.94799 17.7226 2.20521 17.6491L4.52511 16.9863C5.46388 17.4888 6.48821 17.8116 7.54546 17.9382L9.46289 17.9535C10.637 17.832 11.7733 17.469 12.8003 16.8874C13.8274 16.3058 14.7232 15.518 15.4313 14.5736C16.1394 13.6292 16.6445 12.5487 16.915 11.3997C17.1855 10.2508 17.2155 9.0583 17.0031 7.89721L16.4535 6.06284Z" fill="#5F2EEA"/>
<path d="M8 16.9851C8.37939 18.0326 8.99291 18.9851 9.79638 19.7742C10.5998 20.5633 11.5733 21.1693 12.6465 21.5485C13.7198 21.9278 14.8661 22.0708 16.0031 21.9673C17.14 21.8639 18.2392 21.5165 19.2214 20.9501L19.2214 20.9501L21.8869 21.6907C21.9972 21.7214 22.1139 21.7228 22.2249 21.6948C22.3359 21.6668 22.4373 21.6105 22.5184 21.5316C22.5995 21.4527 22.6574 21.3542 22.6862 21.2462C22.7149 21.1382 22.7135 21.0247 22.682 20.9175L21.9204 18.3252L21.9205 18.3253C22.5971 17.2154 22.9683 15.9547 22.9981 14.6648C23.0278 13.3749 22.7153 12.0992 22.0906 10.961C21.4658 9.82271 20.55 8.86024 19.4314 8.16644C18.3128 7.47263 17.0293 7.0709 15.7045 7" stroke="#5F2EEA" stroke-width="2" stroke-linecap="round" stroke-linejoin="round"/>
</svg>
