<svg width="24" height="24" viewBox="0 0 24 24" fill="none" xmlns="http://www.w3.org/2000/svg">
<path d="M3.00002 9.75H7.50002V19.5H3.00002C2.80111 19.5 2.61035 19.421 2.46969 19.2803C2.32904 19.1397 2.25002 18.9489 2.25002 18.75V10.5C2.25002 10.3011 2.32904 10.1103 2.46969 9.96967C2.61035 9.82902 2.80111 9.75 3.00002 9.75V9.75Z" stroke="black" stroke-width="2.4" stroke-linecap="round" stroke-linejoin="round"/>
<path d="M7.50002 9.75L11.25 2.25C12.0457 2.25 12.8087 2.56607 13.3713 3.12868C13.934 3.69129 14.25 4.45435 14.25 5.25V7.5H20.0532C20.2658 7.49947 20.4762 7.54447 20.67 7.63197C20.8639 7.71946 21.0368 7.84743 21.1771 8.00728C21.3174 8.16712 21.4219 8.35514 21.4835 8.55871C21.5451 8.76228 21.5625 8.97667 21.5344 9.1875L20.4094 18.1875C20.3639 18.5488 20.1885 18.8812 19.9159 19.1227C19.6434 19.3642 19.2923 19.4983 18.9282 19.5H7.50002" stroke="black" stroke-width="2.4" stroke-linecap="round" stroke-linejoin="round"/>
</svg>
